<svg version="1.2" baseProfile="tiny-ps" xmlns="http://www.w3.org/2000/svg" viewBox="0 0 1499 300" width="1499" height="300">
	<title>logo-fworks-black-svg</title>
	<style>
		tspan { white-space:pre }
		.shp0 { fill: #4d4d4d } 
		.shp1 { fill: #9b65c3 } 
		.shp2 { fill: #be63c5 } 
		.shp3 { fill: #bf63c6 } 
		.shp4 { fill: #3278b1 } 
		.shp5 { fill: #3278b2 } 
		.shp6 { fill: #45a4ec } 
		.shp7 { fill: #19bb7d } 
		.shp8 { fill: #08c7fb } 
		.shp9 { fill: #59f2f6 } 
		.shp10 { fill: #da3757 } 
		.shp11 { fill: #d33c4e } 
		.shp12 { fill: #ee5a24 } 
		.shp13 { fill: #8bdf55 } 
		.shp14 { fill: #25c16f } 
		.shp15 { fill: #ffbb00 } 
		.shp16 { fill: #ffa800 } 
	</style>
	<g id="Layer">
		<path id="Layer" fill-rule="evenodd" class="shp0" d="M364.5 7.5C370.5 7.5 375 12 375.75 18C375.75 23.25 371.25 27.75 365.25 27.75C341.25 27.75 336 44.25 336 57.75L336 72.75L360 72.75C366 72.75 370.5 77.25 370.5 83.25C370.5 89.25 366 93.75 360 93.75L336 93.75L336 198C336 204.75 331.5 209.25 324.75 209.25C318 209.25 313.5 204 313.5 198L313.5 94.5L306 94.5C300 94.5 295.5 90 295.5 84C295.5 78 300 73.5 306 73.5L313.5 73.5L313.5 58.5C313.5 33.75 327 7.5 364.5 7.5ZM460.5 80.25C460.5 86.25 456 90.75 450 90.75C426.75 90.75 412.5 106.5 412.5 133.5L412.5 197.25C412.5 204 408 208.5 401.25 208.5C394.5 208.5 390 203.25 390 197.25L390 81.75C390 75.75 394.5 70.5 401.25 70.5C408 70.5 412.5 75.75 412.5 81.75L412.5 87.75C421.5 75.75 435 69 450 69.75C455.25 69.75 460.5 74.25 460.5 80.25ZM582.75 126.75C582.75 134.25 582.75 146.25 570 147.75L489 147.75C489.75 174 505.5 190.5 530.25 190.5C542.25 190.5 554.25 186 563.25 178.5C564.75 177 567 176.25 569.25 176.25C574.5 176.25 579 180.75 579 186C579 189 577.5 192 575.25 193.5C562.5 204.75 546 210.75 529.5 210C488.25 210 466.5 185.25 466.5 139.5C466.5 95.25 488.25 69.75 526.5 69.75C544.5 68.25 561.75 76.5 572.25 90.75C579 101.25 582.75 114 582.75 126.75ZM527.25 89.25C504.75 89.25 491.25 102.75 489 126.75L561.75 126.75C561 102 549.75 89.25 527.25 89.25ZM656.25 128.25C677.25 135.75 700.5 143.25 702 171C702 195 683.25 210 651.75 210C633 210 615 202.5 602.25 187.5C600.75 185.25 600 183 600 180.75C600 175.5 604.5 171 609.75 171C612.75 171.75 615 172.5 617.25 174.75C626.25 183.75 639 189 651.75 188.25C662.25 188.25 680.25 185.25 680.25 169.5C680.25 157.5 666 153 650.25 147.75C629.25 140.25 605.25 132 605.25 105C605.25 83.25 622.5 69 650.25 69C666.75 67.5 683.25 75 694.5 87.75C696 90 696.75 92.25 696.75 94.5C696.75 97.5 696 99.75 693.75 102C690 105.75 683.25 105.75 679.5 102C672 94.5 660.75 90 649.5 90.75C641.25 90.75 626.25 92.25 626.25 105.75C626.25 117.75 639.75 122.25 656.25 128.25ZM840 121.5L840 197.25C840 204 835.5 208.5 829.5 208.5C822.75 208.5 818.25 203.25 818.25 197.25L818.25 125.25C818.25 99.75 810 89.25 786 89.25C762 89.25 750 102 750 127.5L750 197.25C750 204 744.75 208.5 738.75 208.5C732.75 208.5 728.25 203.25 728.25 197.25L728.25 11.25C728.25 4.5 732.75 0 738.75 0C745.5 0 750 5.25 750 11.25L750 84.75C759 74.25 772.5 68.25 786 69C822 69 840 87 840 121.5ZM1033.5 81.75C1033.5 83.25 1033.5 84.75 1032.75 86.25L990.75 201C989.25 205.5 984.75 208.5 980.25 208.5C975.75 208.5 971.25 205.5 969.75 201L945 117L920.25 201C918.75 205.5 914.25 208.5 909.75 208.5C904.5 208.5 900.75 205.5 899.25 201L857.25 86.25C856.5 84.75 856.5 83.25 856.5 81.75C856.5 75.75 861 71.25 867 71.25C872.25 70.5 876 73.5 877.5 78L907.5 167.25L933 78.75C934.5 75.75 936.75 72.75 939.75 72C945.75 70.5 951.75 72.75 954 78.75L979.5 167.25L1011 78.75C1012.5 74.25 1017 71.25 1021.5 71.25C1027.5 71.25 1032 75.75 1033.5 81.75ZM1162.5 138.75C1162.5 184.5 1140.75 209.25 1101 209.25C1061.25 209.25 1039.5 183.75 1039.5 138.75C1039.5 93.75 1061.25 69 1101 69C1140.75 69 1162.5 93 1162.5 138.75ZM1140 138.75C1140 105.75 1127.25 88.5 1101 88.5C1074.75 88.5 1061.25 105 1061.25 138.75C1061.25 172.5 1074.75 189 1101 189C1127.25 189.75 1140 171.75 1140 138.75ZM1246.5 69.75C1252.5 69.75 1257 74.25 1257 80.25C1257 86.25 1252.5 90.75 1246.5 90.75C1223.25 90.75 1209 106.5 1209 133.5L1209 197.25C1209 203.25 1203.75 207.75 1197.75 207.75C1191.75 207.75 1187.25 202.5 1187.25 196.5L1187.25 81C1187.25 75 1192.5 70.5 1198.5 70.5C1204.5 70.5 1209 75.75 1209 81.75L1209 87.75C1218 75.75 1231.5 69 1246.5 69.75ZM1329.75 126.75L1378.5 191.25C1380 192.75 1380.75 195.75 1380.75 198C1380.75 204 1376.25 208.5 1370.25 208.5C1367.25 208.5 1363.5 206.25 1361.25 203.25L1311.75 140.25L1296.75 152.25L1296.75 197.25C1296.75 203.25 1291.5 207.75 1285.5 207.75C1279.5 207.75 1275 202.5 1275 196.5L1275 10.5C1275 4.5 1280.25 0 1286.25 0C1292.25 0 1296.75 5.25 1296.75 11.25L1296.75 126.75L1361.25 74.25C1363.5 72 1365.75 71.25 1368.75 71.25C1374.75 71.25 1379.25 75.75 1379.25 81.75C1379.25 85.5 1377.75 88.5 1374.75 90.75L1329.75 126.75ZM1452.75 128.25C1473.75 135.75 1497 143.25 1498.5 169.5C1498.5 193.5 1479.75 208.5 1448.25 208.5C1428.75 209.25 1410.75 201.75 1398 187.5C1396.5 185.25 1395.75 183 1395.75 180.75C1395.75 175.5 1400.25 171 1405.5 171C1408.5 171.75 1410.75 172.5 1413 174.75C1422 183.75 1434.75 189 1447.5 188.25C1458 188.25 1476 185.25 1476 169.5C1476 157.5 1461.75 153 1446 147.75C1425 140.25 1401 132 1401 105C1401 83.25 1418.25 69 1446 69C1462.5 67.5 1479 75 1490.25 87.75C1491.75 90 1492.5 92.25 1492.5 94.5C1492.5 99.75 1488.75 104.25 1483.5 105C1480.5 105 1478.25 104.25 1476 102C1468.5 94.5 1457.25 90 1446 90.75C1437.75 90.75 1422.75 92.25 1422.75 105.75C1422.75 117.75 1436.25 122.25 1452.75 128.25Z" />
		<path id="Layer" class="shp1" d="M1.5 191.25C5.25 218.25 18 243 37.5 262.5L81 219C81 173.25 105 131.25 144.75 108L1.5 191.25Z" />
		<path id="Layer" class="shp1" d="M81 219C58.5 219 36.75 213 17.25 201.75C12 198.75 6.75 195 1.5 191.25C5.25 218.25 18 243 37.5 262.5L81 219Z" />
		<path id="Layer" class="shp2" d="M81 219L37.5 262.5C57 282 81.75 294.75 108.75 298.5L191.25 155.25C168.75 194.25 126.75 219 81 219L81 219Z" />
		<path id="Layer" class="shp3" d="M98.25 282.75C87 263.25 81 241.5 81 219L37.5 262.5C57 282 81.75 294.75 108.75 298.5C105 293.25 101.25 288 98.25 282.75L98.25 282.75Z" />
		<path id="Layer" class="shp4" d="M243.75 51L144.75 108C105 130.5 57 130.5 17.25 108C6 127.5 0 150 0 172.5C0 178.5 0.75 185.25 1.5 191.25C6.75 195 12 198.75 17.25 201.75C36.75 213 58.5 219 81 219L246 54C245.25 53.25 244.5 52.5 243.75 51L243.75 51Z" />
		<path id="Layer" class="shp5" d="M17.25 201.75C36.75 213 58.5 219 81 219C81 173.25 105 131.25 144.75 108L1.5 190.5C6.75 195 12 198.75 17.25 201.75L17.25 201.75Z" />
		<path id="Layer" class="shp6" d="M17.25 108C6 127.5 0 150 0 172.5C0 178.5 0.75 185.25 1.5 191.25L144.75 108C105.75 131.25 57 131.25 17.25 108L17.25 108Z" />
		<path id="Layer" class="shp7" d="M246 54C243.75 51.75 242.25 50.25 240 48.75C235.5 45.75 229.5 44.25 224.25 44.25L127.5 44.25C81.75 44.25 39.75 69 17.25 108C57 130.5 105 130.5 144.75 108C105 130.5 81 173.25 81 219C126.75 219 168.75 195 192 155.25L249 56.25C247.5 55.5 246.75 54.75 246 54L246 54Z" />
		<path id="Layer" class="shp8" d="M144.75 108L243.75 51C242.25 50.25 241.5 48.75 240 48L17.25 108C57 131.25 105.75 131.25 144.75 108Z" />
		<path id="Layer" class="shp9" d="M223.5 44.25L127.5 44.25C81.75 44.25 39.75 69 17.25 108L240 48C234.75 45.75 229.5 44.25 223.5 44.25Z" />
		<path id="Layer" class="shp10" d="M192 155.25L249 56.25C248.25 55.5 247.5 54.75 246.75 53.25L81.75 218.25C81.75 240.75 87.75 262.5 99 282C102 287.25 105.75 292.5 109.5 297.75C115.5 298.5 121.5 299.25 127.5 299.25C150 299.25 171.75 293.25 191.25 282C168.75 243 168.75 194.25 192 155.25L192 155.25Z" />
		<path id="Layer" class="shp11" d="M81 219C81 241.5 87 263.25 98.25 282.75C101.25 288 105 293.25 108.75 298.5L191.25 155.25C168.75 194.25 126.75 219 81 219L81 219Z" />
		<path id="Layer" class="shp12" d="M192 155.25L109.5 298.5C115.5 299.25 121.5 300 128.25 300C150.75 300 172.5 294 192 282.75C168.75 243 168.75 194.25 192 155.25L192 155.25Z" />
		<path id="Layer" class="shp13" d="M251.25 60C249 56.25 246.75 53.25 243.75 51L144.75 108C105 130.5 81 173.25 81 219C126.75 219 168.75 195 192 155.25C169.5 195 169.5 243 192 282.75C231 260.25 255.75 218.25 255.75 173.25L255.75 76.5C255.75 70.5 254.25 65.25 251.25 60L251.25 60Z" />
		<path id="Layer" class="shp14" d="M243.75 51L144.75 108C105 130.5 81 173.25 81 219L246 54C245.25 53.25 244.5 51.75 243.75 51L243.75 51Z" />
		<path id="Layer" class="shp13" d="M81 219C126.75 219 168.75 195 192 155.25L249 56.25C248.25 55.5 247.5 54.75 246.75 53.25L81 219Z" />
		<path id="Layer" class="shp15" d="M249 56.25L192 155.25C169.5 195 169.5 243 192 282.75L252 60C250.5 58.5 249.75 57.75 249 56.25L249 56.25Z" />
		<path id="Layer" class="shp16" d="M192 282.75C231.75 260.25 255.75 218.25 255.75 172.5L255.75 76.5C255.75 70.5 254.25 65.25 251.25 60L192 282.75L192 282.75Z" />
	</g>
</svg>