<?xml version="1.0" encoding="UTF-8"?><svg id="b" xmlns="http://www.w3.org/2000/svg" xmlns:xlink="http://www.w3.org/1999/xlink" viewBox="0 0 1723.95 440.93"><defs><clipPath id="d"><path d="m1075.25,187.76c16.28.03,42.4.06,74.51.01,65.14-.1,118.74-.47,156.64-.79,57.76-.49,171.62-1.66,417.55-4.62v215.26c-198.96,1.42-397.91,2.85-596.87,4.27-209.67-.2-419.33-.41-629-.61.23-86.1.46-172.2.68-258.31,300.95-1.59,520.38-2.27,547.06-2.06,5.9.05,21.56.33,27.08,8.64,2.04,3.06,1.93,6,2.04,18.51.08,8.84.21,15.81.3,19.7Z" fill="none"/></clipPath><clipPath id="g"><circle cx="221.42" cy="220.47" r="220.47" fill="none"/></clipPath></defs><g id="c"><g clip-path="url(#d)"><path d="m571.05,187.74l26.48,91.08c4.81,16.85,8.02,32.1,11.23,47.75h1.2c3.21-16.05,6.42-30.89,10.83-47.75l25.28-91.08h64.2l-73.02,196.2h-60.99l-71.42-196.2h66.2Z" fill="#f0516e"/><path d="m921.72,320.94c0,25.68.8,46.54,1.6,62.99h-52.96l-2.81-27.69h-1.2c-7.62,12.04-26.08,32.1-61.39,32.1-40.12,0-69.01-24.88-69.01-85.46v-115.15h60.99v105.52c0,28.49,9.23,45.74,30.89,45.74,16.85,0,26.88-11.64,30.49-21.27,1.6-3.61,2.41-8.02,2.41-13.24v-116.76h60.99v133.21Z" fill="#f0516e"/><path d="m969.06,99.06h60.99v284.87h-60.99V99.06Z" fill="#f0516e"/><path d="m1146,134.77v52.96h43.73v44.94h-43.73v71.02c0,23.67,6.02,34.51,24.07,34.51,8.43,0,12.44-.4,18.06-1.6l.4,46.14c-7.62,2.81-22.47,5.22-39.32,5.22-19.66,0-36.11-6.82-46.14-16.85-11.23-11.64-16.85-30.49-16.85-58.18v-80.25h-26.08v-44.94h26.08v-36.51l59.78-16.45Z" fill="#f0516e"/><path d="m1286.42,133.17c0,16.85-12.44,30.49-32.9,30.49-19.26,0-31.7-13.64-31.7-30.49s12.84-30.49,32.5-30.49,31.7,13.24,32.1,30.49Zm-62.99,250.77v-196.2h60.99v196.2h-60.99Z" fill="#f0516e"/><path d="m1377.09,187.74l26.48,91.08c4.82,16.85,8.02,32.1,11.23,47.75h1.2c3.21-16.05,6.42-30.89,10.83-47.75l25.28-91.08h64.2l-73.02,196.2h-60.99l-71.42-196.2h66.2Z" fill="#f0516e"/><path d="m1588.13,305.3c1.6,25.28,26.88,37.31,55.37,37.31,20.86,0,37.71-2.81,54.17-8.43l8.02,41.33c-20.06,8.43-44.54,12.44-71.02,12.44-66.6,0-104.72-38.52-104.72-99.91,0-49.75,30.9-104.72,99.1-104.72,63.39,0,87.47,49.35,87.47,97.9,0,10.43-1.2,19.66-2.01,24.07h-126.39Zm71.82-41.73c0-14.85-6.42-39.72-34.51-39.72-25.68,0-36.11,23.67-37.72,39.72h72.22Z" fill="#f0516e"/></g></g><g id="e"><circle cx="219.99" cy="219.99" r="219.99" fill="#f0516e"/></g><g id="f"><g clip-path="url(#g)"><path d="m163.84,160.49c.46-.47.68-.71.84-.85.24-.22.45-.38.72-.7.2-.23.32-.36.41-.56.17-.36.16-.69.15-.96-.04-.9-.06-1.35-.11-1.66-.04-.27-.07-1.05-.13-2.59-.08-2.17.01-4.31.02-5.02,0-.81.15-3.08.66-8.01.98-9.36,2.96-18.26,2.96-18.26.63-3.81,2.14-9.26,5.09-17.16,1.08-2.9,2.32-6.19,4.32-10.43,0,0,3.07-6.5,8.16-11.47.23-.23.8-.71,1.64-1.15.57-.29,2.62-1.36,4.68-.66.95.32,1.59.91,2.1,1.46,2.72,2.98,3.39,7.34,3.48,7.83.69,3.6,1.76,8.81,3.37,15.38,0,0,0,0,0,0,0,0,0,0,0,0,1.52,10.62,5.04,18.83,5.04,18.83.08.25.9,2.09,1.51,3.23.96,1.79,1.53,2.84,2.48,2.98.28.04.37-.03,1.68-.43,1.34-.41.7-.17,2.4-.7,2.71-.83,2.54-.89,3.9-1.27,2.75-.77,3.68-.6,4.74-1.64.23-.22.29-.33.99-1.4,1.46-2.23,1.71-2.55,2.11-3.16.26-.4.45-.69.48-.74,1.4-2.22,3.82-5.46,3.82-5.46,3.33-4.17,3.69-5.37,6.73-9.11,2.54-3.12,4.61-5.24,6.72-7.4,2.66-2.73,5.35-5.48,9.29-8.61,1.37-1.08,3.62-2.8,6.7-4.48,0,0,1.77-.97,4.48-1.97,2.67-.98,3.58-1,4.34-.86.39.07,1.78.34,2.9,1.56,1.07,1.16,1.25,2.49,1.31,2.98.2,1.61-.34,2.76-1.37,5.04-1.08,2.39-2.09,4.82-3.18,7.21-.62,1.35-1.2,2.67-2.38,5.3-1.63,3.64-2.44,5.46-2.71,6.1-.28.68-2.36,5.66-2.87,10.57-.67,6.34,1.17,11.34,2.3,14.62,2.06,5.97,4.32,8.45,10.84,18.2,6.4,9.57,4.78,7.97,10.18,15.99,10.55,15.66,14.71,19.31,17.74,21.57,4.96,3.71,10.35,6.03,13.91,6.9,10.81,2.65,19.69-4.21,21.45-1.4.47.74.06,1.88-.74,4.15-.89,2.52-2.3,4.91-4.8,7.69-3.77,4.18-7.71,6.68-10,7.97-4.55,2.55-8.4,3.67-10.94,4.26-5.61,1.31-12.07,1.63-21.1,2.08-5.05.25-9.93.23-9.93.23-2.13-.01-3.65-.02-5.76-.12-6.58-.31-7.14-1.08-8.32-.44-3.93,2.12-3.8,9.54-3.59,16.63.23,7.93.02,14.58,3.59,22.34,1.96,4.26,4.17,7.05,6.93,10.54,1.29,1.64,5.12,6.33,13.22,13.11,4.9,4.1,6.72,5.07,13.36,9.96.84.62,9.76,7.21,19.49,15.44,9.62,8.13,16.57,14.95,19.05,17.41,6.5,6.45,7.22,7.74,20.69,22.66,16.95,18.78,18.13,20.61,18.14,20.62h0c1.49,1.45,5.26,5.49,4.99,10.73-.18,3.54-2.39,6-6.82,10.93-6.77,7.53-14.56,12.06-18.16,14.12h0c-21.68,11.71-32.53,17.57-34.91,18.6-15.84,6.87-29.47,10.92-38.46,13.25-13.05,3.38-30.24,6.76-50.71,7.94-14.07,1-25.87,1.15-34.8,1.03-9.41-.12-17.47-.55-20.26-5.47-1.18-2.07-.51-3.35-1.58-9.04-.88-4.67-2.09-7.86-3.78-12.34-2.79-7.37-10.18-24.68-20.69-47.38-8.03-17.08-11.4-30.6-15.74-47.99-6.91-27.69-14.84-61.23-5.91-100.51,0,0,8.16-35.92,27.56-59.09.23-.28,2.31-2.71,4.08-4.74,0,0,1.04-1.2,2-2.2Z" fill="#fff"/></g><g id="h"><path d="m237.06,199.72s8.13.25,20.08,2.84c2.96.64,4.57.99,6.77,1.65.91.27,2.05.63,3.8,1.1.92.25,2.02.51,3.64.85,6.34,1.32,12.72,2.11,20.19,2.44,7.71.34,13.64.73,21.45-.32,10.29-1.38,18.35-4.41,19.06-2.78.2.46-.34,1.16-1.43,2.57-1.65,2.13-3.54,3.62-6.09,5.2-1.08.67-3.39,2.05-6.84,3.56-2.56,1.12-5.47,2.38-9.47,3.23-.86.18-2.39.49-6.46.88-7.56.72-13.46.74-14.78.74-4.77,0-8.8,0-12.57-.38-1.03-.11-2.36-.15-5.03-.24-2.38-.08-3.18-.06-4.21.26-.64.2-2.28.73-3.5,2.23-.88,1.08-1.16,2.2-1.42,3.51-.85,4.3-.84,7.69-.84,7.69s0,3.22-.25,9.5c-.37,9.4-.91,11.12-1.81,12.65-.53.91-1.62,2.49-2.96,5.17-.38.77-.75,1.56-1.48,3.12-.68,1.46-1.21,2.61-1.72,3.78-.77,1.78-.85,2.13-1.89,4.76-1.23,3.1-3.16,7.75-3.81,9.72-.2.59-.38,1.17-.38,1.17-.32,1.04-.48,1.67-1.37,4.49-1.06,3.35-1.35,4.12-1.85,5.89-.55,1.92-.88,3.37-1.52,6.3-.72,3.3-1.25,5.74-1.73,9.12-.14.95-.63,4.49-.88,9.21-.22,3.98-.17,6.99-.15,7.61.14,7.38,1.1,8.95,1.32,15.98.16,5.25.31,9.76-1.15,10.18-1.75.51-4.96-4.98-7.23-8.87-4.57-7.82-5.64-12.76-8.21-12.81-1.38-.02-2.43,1.38-3.12,2.3-1.3,1.74-3.26,5.44-1.48,16.42,1.05,6.49,3.44,15.66,4.11,18.23,1.07,4.13,1.67,6.14.82,6.73-2.06,1.43-10.2-7.04-11.17-8.05-2.13-2.22-5.08-5.33-8.21-10.51-9.82-16.26-12.32-37.28-12.32-37.28s-2.66-22.34,3.61-41.06c2.13-6.36,4.12-10.91,4.12-10.91,3.85-8.81,4.58-10.27,4.58-10.27,2.23-4.45,4.01-7.3,2.79-9.2-.62-.96-1.73-1.24-1.81-1.26-3.76-.89-6.68,6.6-16.09,12.92-3.4,2.29-4.7,2.43-5.42,1.97-1.77-1.13-.42-6.14,0-7.72.74-2.75,2.66-5.92,6.46-12.15,1.5-2.46,2.35-3.77,3.56-5.34.55-.71,1.85-2.37,4.31-4.87,4.18-4.26,7.48-6.67,10.47-11.3.94-1.46,1.21-2.33.88-2.79-.99-1.37-7.11,1.48-7.86,1.84-4.65,2.2-7.16,4.68-12.88,6.75-1.18.43-2.36.79-2.85.27-1.03-1.09,1.85-5.33,2.57-6.41,2.02-2.98,5.88-7.6,13.91-12.15,2.28-1.29,8.78-4.79,18.16-6.79,7.8-1.66,13.95-1.51,17.63-1.4Z" fill="#f0516e"/></g></g></svg>